<?xml version="1.0" standalone="no"?>
<!DOCTYPE svg PUBLIC "-//W3C//DTD SVG 20010904//EN"
 "http://www.w3.org/TR/2001/REC-SVG-20010904/DTD/svg10.dtd">
<svg version="1.0" xmlns="http://www.w3.org/2000/svg"
 width="134.000000pt" height="134.000000pt" viewBox="0 0 134.000000 134.000000"
 preserveAspectRatio="xMidYMid meet">
<metadata>
Created by potrace 1.14, written by Peter Selinger 2001-2017
</metadata>
<g transform="translate(0.000000,134.000000) scale(0.100000,-0.100000)"
fill="#000000" stroke="none">
<path d="M999 1003 c-134 -181 -254 -443 -271 -593 -4 -40 16 -35 26 7 19 86
61 201 106 292 47 95 154 266 192 308 19 20 18 43 -2 43 -5 0 -28 -25 -51 -57z"/>
<path d="M120 878 c-11 -18 -23 -43 -26 -55 -8 -30 -21 -30 -19 0 4 51 -19 64
-36 20 -11 -30 -39 -222 -35 -247 3 -22 15 -31 20 -15 3 8 7 45 11 83 5 63 15
104 15 63 0 -32 28 -17 41 21 14 44 59 136 64 130 2 -1 6 -84 9 -183 7 -247
42 -425 83 -425 17 0 16 10 -1 51 -13 30 -22 74 -41 189 -3 19 -8 98 -11 175
-7 200 -11 225 -35 225 -11 0 -28 -14 -39 -32z"/>
<path d="M1113 813 c-9 -21 -18 -67 -21 -104 -6 -80 -19 -103 -55 -90 -23 9
-24 14 -20 55 7 62 -7 59 -58 -10 -43 -59 -59 -60 -59 -1 0 37 -17 34 -22 -4
-6 -39 20 -74 48 -65 10 3 29 21 42 38 l22 33 0 -26 c0 -15 7 -32 15 -39 8 -7
15 -9 15 -6 0 4 9 2 20 -4 16 -9 25 -6 44 13 35 35 100 35 122 1 9 -13 23 -24
30 -24 8 0 23 -5 33 -12 33 -20 51 -3 51 46 l0 46 -37 -4 c-21 -2 -37 -8 -36
-14 5 -23 -28 -21 -39 2 -9 21 -14 23 -34 14 -27 -12 -59 -3 -48 14 9 14 33
126 34 156 0 36 -29 26 -47 -15z m181 -208 c8 -23 -12 -28 -23 -6 -6 11 -11
22 -11 25 0 11 29 -6 34 -19z"/>
<path d="M385 712 c-31 -7 -45 -22 -45 -51 0 -15 -7 -36 -16 -47 -15 -19 -15
-19 -11 2 2 12 -4 32 -14 45 l-19 24 -25 -28 c-38 -42 -16 -87 41 -82 40 4 63
28 64 66 0 27 16 49 36 49 8 0 10 -12 7 -40 -4 -25 -1 -46 7 -55 11 -14 17
-12 46 10 l33 25 3 -23 c2 -17 10 -22 35 -23 18 0 36 -3 39 -7 17 -16 47 -4
85 33 23 22 40 40 38 41 -2 0 -25 3 -51 5 -39 4 -48 2 -48 -10 0 -9 9 -16 20
-16 25 0 26 -16 1 -30 -14 -7 -22 -7 -26 1 -4 5 -21 9 -38 7 -36 -4 -47 16
-17 32 11 6 18 15 15 21 -9 13 -55 0 -92 -27 l-32 -24 4 32 c3 17 9 36 15 42
27 27 1 40 -55 28z m-102 -93 c-4 -15 -8 -17 -13 -8 -10 15 -1 41 10 34 5 -3
6 -14 3 -26z"/>
<path d="M1200 690 c0 -5 5 -10 10 -10 6 0 10 5 10 10 0 6 -4 10 -10 10 -5 0
-10 -4 -10 -10z"/>
</g>
</svg>
